<svg width="87" height="64" viewBox="0 0 87 64" fill="none" xmlns="http://www.w3.org/2000/svg">
<path d="M0 46.8462V22.8849H10.3895C12.2146 22.8849 13.7473 23.1306 14.9875 23.622C16.2355 24.1134 17.1754 24.8076 17.8072 25.7046C18.4467 26.6016 18.7665 27.6585 18.7665 28.8752C18.7665 29.7566 18.5715 30.56 18.1816 31.2854C17.7994 32.0108 17.2612 32.6192 16.567 33.1106C15.8728 33.5942 15.0616 33.9296 14.1334 34.1168V34.3508C15.163 34.3898 16.099 34.6511 16.9414 35.1347C17.7838 35.6104 18.4545 36.2695 18.9537 37.1119C19.4529 37.9465 19.7025 38.9293 19.7025 40.0603C19.7025 41.3707 19.3593 42.5367 18.6729 43.5585C17.9944 44.5803 17.0272 45.3837 15.7714 45.9687C14.5156 46.5537 13.018 46.8462 11.2786 46.8462H0ZM6.50511 41.6515H9.54707C10.6391 41.6515 11.458 41.4487 12.004 41.0431C12.55 40.6297 12.823 40.0213 12.823 39.2179C12.823 38.6563 12.6943 38.1805 12.4369 37.7905C12.1795 37.4005 11.8129 37.1041 11.3371 36.9013C10.8692 36.6985 10.3037 36.5971 9.64067 36.5971H6.50511V41.6515ZM6.50511 32.5724H9.17267C9.74207 32.5724 10.2452 32.4827 10.682 32.3033C11.1187 32.1239 11.458 31.8665 11.6998 31.5311C11.9494 31.1879 12.0742 30.7706 12.0742 30.2792C12.0742 29.5382 11.809 28.9727 11.2786 28.5827C10.7483 28.1849 10.0775 27.986 9.26627 27.986H6.50511V32.5724Z" fill="white"/>
<path d="M20.8543 46.8462V22.8849H27.3594V41.6047H37.0468V46.8462H20.8543Z" fill="white"/>
<path d="M60.1651 46.8462V22.8849H70.5078C72.2862 22.8849 73.8422 23.2359 75.176 23.9379C76.5098 24.6399 77.5472 25.6266 78.2882 26.898C79.0292 28.1693 79.3997 29.6552 79.3997 31.3556C79.3997 33.0716 79.0175 34.5575 78.2531 35.8132C77.4965 37.069 76.4318 38.0362 75.059 38.7148C73.6941 39.3934 72.099 39.7327 70.2738 39.7327H64.0963V34.6784H68.9634C69.7278 34.6784 70.3791 34.5458 70.9173 34.2806C71.4633 34.0076 71.8806 33.6215 72.1692 33.1223C72.4656 32.6231 72.6138 32.0342 72.6138 31.3556C72.6138 30.6692 72.4656 30.0842 72.1692 29.6006C71.8806 29.1092 71.4633 28.7348 70.9173 28.4774C70.3791 28.2122 69.7278 28.0796 68.9634 28.0796H66.6702V46.8462H60.1651Z" fill="white"/>
<path fill-rule="evenodd" clip-rule="evenodd" d="M38.182 16.5629L38.2047 16.5925C38.3215 16.7451 38.4487 16.8785 38.5814 16.9921L38.7112 17.1033L38.8334 17.2229C39.0634 17.448 39.2576 17.6221 39.5217 17.8578L39.5292 17.8645C40.0211 18.3035 40.6242 18.8418 41.4275 19.7455C43.316 21.8701 43.8164 24.2928 43.7649 26.3322C43.7216 28.0497 43.2706 29.7 43.0033 30.678C42.9883 30.7328 42.9739 30.7856 42.9602 30.8361C42.816 31.3666 42.7193 31.7272 42.6499 32.049L42.6064 32.2503L42.547 32.4475C42.3328 33.1589 42.2131 33.9314 42.2131 34.7485C42.2131 39.0273 45.285 41.6982 48.1332 41.6982C50.9814 41.6982 54.0533 39.0273 54.0533 34.7485C54.0533 31.4982 52.1913 29.0481 50.0596 28.1779L49.7273 28.0422L49.417 27.8618C48.5013 27.3292 47.4526 26.6153 46.4966 25.7801C45.6398 25.0315 44.398 23.7945 43.6743 22.1403C42.9927 20.5824 42.584 19.224 42.3794 17.9401C42.1807 16.6936 42.2076 15.6878 42.2239 15.0788C42.2244 15.0597 42.2249 15.0411 42.2253 15.0228C42.2359 14.621 42.2359 14.4912 42.2283 14.3779C42.2236 14.3091 42.2153 14.2424 42.1839 14.13L42.153 14.0195L42.127 13.9076C41.7981 12.4904 40.7317 11.8402 39.8965 11.8402C38.9351 11.8402 37.5799 12.7791 37.5799 14.6716C37.5799 15.4157 37.8133 16.0539 38.16 16.5325L38.182 16.5629ZM34.1174 19.7222C34.4495 20.1559 34.8234 20.5515 35.2327 20.902C35.5559 21.2184 35.8294 21.4625 36.0938 21.6984C36.5474 22.1033 36.9743 22.4843 37.5799 23.1657C37.6128 23.2027 37.6448 23.2399 37.6759 23.2773C39.186 25.0946 38.5689 27.3648 37.9924 29.486C37.8556 29.9894 37.7211 30.4844 37.6178 30.963C37.2592 32.1539 37.0651 33.4264 37.0651 34.7485C37.0651 41.4298 42.0205 46.8461 48.1332 46.8461C54.2459 46.8461 59.2012 41.4298 59.2012 34.7485C59.2012 29.556 56.2083 25.1276 52.0052 23.4118C50.6322 22.6133 48.9253 21.2991 48.3906 20.0769C47.3072 17.6006 47.3405 16.3341 47.3715 15.1582C47.3911 14.4122 47.4098 13.7026 47.1417 12.7438C46.3351 9.26828 43.3972 6.69226 39.8965 6.69226C35.774 6.69226 32.432 10.2647 32.432 14.6716C32.432 16.3085 32.8931 17.8303 33.6841 19.0966C33.781 19.2519 33.8829 19.4033 33.9896 19.5506C33.99 19.5512 33.9904 19.5517 33.9909 19.5523L33.9764 19.5621C33.9765 19.5622 33.9766 19.5624 33.9768 19.5625C34.007 19.5971 34.0369 19.6311 34.0664 19.6646C34.0835 19.684 34.1005 19.7032 34.1174 19.7222Z" fill="white"/>
<path d="M86.9999 43.2426C86.9999 45.5171 85.1561 47.3609 82.8816 47.3609C80.6071 47.3609 78.7632 45.5171 78.7632 43.2426C78.7632 40.9681 80.6071 39.1242 82.8816 39.1242C85.1561 39.1242 86.9999 40.9681 86.9999 43.2426Z" fill="white"/>
<path fill-rule="evenodd" clip-rule="evenodd" d="M56.1125 15.4438C57.8184 15.4438 59.2013 14.0609 59.2013 12.355C59.2013 10.6491 57.8184 9.26625 56.1125 9.26625C54.4066 9.26625 53.0238 10.6491 53.0238 12.355C53.0238 14.0609 54.4066 15.4438 56.1125 15.4438ZM56.1125 18.5325C59.5243 18.5325 62.29 15.7668 62.29 12.355C62.29 8.94326 59.5243 6.17749 56.1125 6.17749C52.7008 6.17749 49.935 8.94326 49.935 12.355C49.935 15.7668 52.7008 18.5325 56.1125 18.5325Z" fill="white"/>
<path fill-rule="evenodd" clip-rule="evenodd" d="M48.3906 5.66272C49.2435 5.66272 49.935 4.97128 49.935 4.11834C49.935 3.26541 49.2435 2.57396 48.3906 2.57396C47.5377 2.57396 46.8462 3.26541 46.8462 4.11834C46.8462 4.97128 47.5377 5.66272 48.3906 5.66272ZM48.3906 8.23669C50.6651 8.23669 52.5089 6.39284 52.5089 4.11834C52.5089 1.84385 50.6651 0 48.3906 0C46.1161 0 44.2722 1.84385 44.2722 4.11834C44.2722 6.39284 46.1161 8.23669 48.3906 8.23669Z" fill="white"/>
<path d="M4.03656 63.3196H0.579254V54.3341H4.00146C4.92574 54.3341 5.72426 54.514 6.397 54.8737C7.07266 55.2306 7.59331 55.7454 7.95893 56.4181C8.32747 57.0879 8.51175 57.8908 8.51175 58.8268C8.51175 59.7628 8.32894 60.5672 7.96332 61.2399C7.5977 61.9097 7.07998 62.4245 6.41016 62.7843C5.74035 63.1411 4.94914 63.3196 4.03656 63.3196ZM3.01867 61.2487H3.94881C4.3934 61.2487 4.77218 61.177 5.08515 61.0337C5.40105 60.8904 5.6409 60.6432 5.80469 60.2922C5.97142 59.9412 6.05478 59.4528 6.05478 58.8268C6.05478 58.2009 5.96996 57.7124 5.80031 57.3614C5.63358 57.0104 5.38789 56.7633 5.06322 56.6199C4.74147 56.4766 4.3466 56.405 3.87861 56.405H3.01867V61.2487Z" fill="white"/>
<path d="M16.1268 63.3196V54.3341H22.6027V56.2997H18.5662V57.844H22.2692V59.8096H18.5662V61.354H22.5851V63.3196H16.1268Z" fill="white"/>
<path d="M35.1426 57.1421C35.1192 56.8496 35.0095 56.6214 34.8136 56.4576C34.6205 56.2938 34.3266 56.2119 33.9317 56.2119C33.6801 56.2119 33.4739 56.2426 33.3131 56.3041C33.1551 56.3626 33.0381 56.443 32.9621 56.5454C32.886 56.6477 32.8465 56.7647 32.8436 56.8964C32.8378 57.0046 32.8568 57.1026 32.9006 57.1903C32.9474 57.2751 33.0206 57.3526 33.12 57.4228C33.2195 57.4901 33.3467 57.5515 33.5017 57.6071C33.6567 57.6627 33.841 57.7124 34.0545 57.7563L34.7916 57.9142C35.2889 58.0195 35.7145 58.1585 36.0684 58.331C36.4223 58.5036 36.7119 58.7069 36.9371 58.9409C37.1623 59.172 37.3276 59.4323 37.4329 59.7219C37.5411 60.0114 37.5967 60.3273 37.5996 60.6696C37.5967 61.2604 37.449 61.7606 37.1565 62.1701C36.864 62.5796 36.4457 62.8911 35.9017 63.1046C35.3605 63.3181 34.7097 63.4249 33.9492 63.4249C33.1683 63.4249 32.4868 63.3093 31.9047 63.0783C31.3256 62.8472 30.8751 62.4918 30.5534 62.0121C30.2345 61.5295 30.0737 60.9123 30.0707 60.1606H32.3873C32.4019 60.4356 32.4707 60.6666 32.5935 60.8538C32.7164 61.041 32.8889 61.1829 33.1112 61.2794C33.3365 61.3759 33.6041 61.4242 33.9141 61.4242C34.1745 61.4242 34.3924 61.392 34.5679 61.3277C34.7434 61.2633 34.8765 61.1741 34.9671 61.06C35.0578 60.946 35.1046 60.8158 35.1075 60.6696C35.1046 60.5321 35.0593 60.4122 34.9715 60.3098C34.8867 60.2045 34.7463 60.1109 34.5503 60.029C34.3544 59.9442 34.0896 59.8652 33.7562 59.7921L32.8612 59.599C32.0656 59.4264 31.4382 59.1383 30.9789 58.7347C30.5227 58.3281 30.296 57.7738 30.2989 57.0719C30.296 56.5015 30.4481 56.0028 30.7552 55.5757C31.0652 55.1458 31.4937 54.8109 32.0407 54.571C32.5906 54.3312 33.2209 54.2112 33.9317 54.2112C34.6571 54.2112 35.2845 54.3326 35.8139 54.5754C36.3433 54.8182 36.7514 55.1604 37.038 55.6021C37.3276 56.0408 37.4738 56.5541 37.4767 57.1421H35.1426Z" fill="white"/>
<path d="M47.4533 54.3341V63.3196H45.0139V54.3341H47.4533Z" fill="white"/>
<path d="M60.9311 57.3C60.8931 57.145 60.8331 57.009 60.7512 56.892C60.6693 56.772 60.567 56.6711 60.4441 56.5892C60.3242 56.5044 60.1838 56.4415 60.0229 56.4006C59.865 56.3567 59.6909 56.3348 59.5008 56.3348C59.0913 56.3348 58.7418 56.4327 58.4522 56.6287C58.1656 56.8247 57.9462 57.107 57.7941 57.4755C57.6449 57.844 57.5703 58.2886 57.5703 58.8093C57.5703 59.3358 57.642 59.7862 57.7853 60.1606C57.9286 60.535 58.1422 60.8217 58.4259 61.0205C58.7096 61.2194 59.0621 61.3189 59.4833 61.3189C59.8547 61.3189 60.1633 61.2648 60.409 61.1566C60.6576 61.0483 60.8434 60.8948 60.9662 60.6959C61.0891 60.497 61.1505 60.263 61.1505 59.9939L61.5717 60.0378H59.5184V58.3003H63.5022V59.5464C63.5022 60.3654 63.3281 61.0659 62.9801 61.648C62.6349 62.2271 62.1581 62.6717 61.5498 62.9817C60.9443 63.2889 60.2496 63.4424 59.4657 63.4424C58.5912 63.4424 57.8233 63.2567 57.1623 62.8852C56.5013 62.5137 55.985 61.9843 55.6135 61.297C55.245 60.6096 55.0607 59.7921 55.0607 58.8444C55.0607 58.1014 55.1733 57.4433 55.3986 56.87C55.6267 56.2967 55.9426 55.8127 56.3462 55.4178C56.7499 55.02 57.2164 54.7202 57.7458 54.5184C58.2753 54.3136 58.8427 54.2112 59.4482 54.2112C59.9805 54.2112 60.4748 54.2873 60.9311 54.4394C61.3903 54.5886 61.7954 54.8021 62.1464 55.08C62.5004 55.3549 62.7855 55.681 63.002 56.0584C63.2184 56.4357 63.3501 56.8496 63.3969 57.3H60.9311Z" fill="white"/>
<path d="M78.9005 54.3341V63.3196H76.8648L73.6181 58.5987H73.5654V63.3196H71.126V54.3341H73.1969L76.3909 59.0374H76.4611V54.3341H78.9005Z" fill="white"/>
</svg>
