<svg width="1728" height="1781" viewBox="0 0 1728 1781" fill="none" xmlns="http://www.w3.org/2000/svg">
<path d="M795.756 331.106L795.745 331.114L794.039 332.42C785.21 339.181 777.494 346.537 770.92 354.213L764.519 361.686L757.636 368.719C744.652 381.986 734.609 393.19 721.02 408.415L720.631 408.851C695.325 437.204 664.307 471.957 612.222 518.256C489.85 627.032 350.308 655.856 232.819 652.89C133.866 650.393 38.7732 624.407 -17.6142 608.998C-20.7782 608.133 -23.8205 607.302 -26.7348 606.51C-57.3155 598.198 -78.1181 592.621 -96.685 588.614L-108.252 586.12L-108.291 586.11L-119.621 582.696C-160.683 570.33 -205.27 563.419 -252.428 563.419C-499.362 563.419 -653.608 740.723 -653.608 905.239C-653.608 1069.76 -499.362 1247.06 -252.428 1247.06C-64.8481 1247.06 76.6047 1139.59 126.858 1016.49L134.665 997.366L145.051 979.509C175.743 926.736 216.887 866.303 265.016 811.212C308.158 761.83 379.417 690.303 474.688 648.622C564.474 609.341 642.751 585.792 716.723 574.003C788.544 562.556 846.491 564.103 881.6 565.041C882.698 565.071 883.774 565.099 884.827 565.127C907.989 565.737 915.494 565.739 922.053 565.295C926.056 565.025 929.934 564.541 936.445 562.721L942.8 560.943L942.821 560.938L949.248 559.447C1031.17 540.434 1068.83 478.758 1068.83 430.36C1068.83 374.642 1014.46 296.3 905.091 296.3C862.08 296.3 825.187 309.789 797.504 329.839L795.756 331.106ZM614.205 97.5647L614.219 97.5538L614.233 97.5419C615.329 96.5702 616.435 95.5916 617.553 94.6059C619.352 93.0192 621.178 91.414 623.033 89.79L623.278 90.154L623.567 90.5831L623.986 90.2798L624.038 90.2423L624.089 90.2052L623.798 89.8036L624.089 90.2051C632.572 84.0645 641.291 78.1953 650.231 72.6114C723.162 27.0586 810.809 0.500098 905.091 0.500102C1158.92 0.500113 1364.63 192.986 1364.63 430.36C1364.63 631.931 1216.3 801.129 1016.12 847.588L1016.11 847.59L1016.1 847.593C960.896 863.03 920.052 861.956 877.045 860.824L877.034 860.824C843.14 859.932 807.898 859.004 763.278 866.116C718.653 873.228 664.665 888.377 593.25 919.621C557.916 935.08 521.3 967.456 487.778 1005.83C454.249 1044.2 423.78 1088.62 400.749 1128.22L400.731 1128.25L400.718 1128.29C301.878 1370.41 46.7521 1542.86 -252.428 1542.86C-637.402 1542.86 -949.408 1257.35 -949.408 905.239C-949.407 553.133 -637.402 267.62 -252.428 267.62C-176.254 267.62 -102.935 278.799 -34.3247 299.461L-34.3056 299.467L-34.286 299.471C-6.70912 305.422 21.8188 313.176 50.8468 321.065L50.8783 321.074C112.002 337.687 175.344 354.902 236.507 357.07C297.7 359.239 356.747 346.347 409.252 302.718C411.414 300.922 413.563 299.074 415.702 297.173C455.006 262.236 476.987 237.609 500.336 211.448C513.939 196.207 528.004 180.448 546.235 161.821L546.246 161.809L546.257 161.797C566.443 138.228 589.227 116.691 614.205 97.5647Z" stroke="#6E74F8"/>
<path d="M859.666 1364.14C859.666 1462.81 939.655 1542.8 1038.33 1542.8C1137 1542.8 1216.99 1462.81 1216.99 1364.14C1216.99 1265.47 1137 1185.48 1038.33 1185.48C939.655 1185.48 859.666 1265.47 859.666 1364.14ZM1038.33 1719.96C841.811 1719.96 682.505 1560.66 682.505 1364.14C682.505 1167.63 841.812 1008.32 1038.33 1008.32C1234.84 1008.32 1394.15 1167.63 1394.15 1364.14C1394.15 1560.66 1234.84 1719.96 1038.33 1719.96Z" stroke="#6E74F8"/>
<path d="M1424.98 919.268C1424.98 968.455 1465.21 1008.32 1514.83 1008.32C1564.44 1008.32 1604.67 968.455 1604.67 919.268C1604.67 870.082 1564.44 830.215 1514.83 830.215C1465.21 830.215 1424.98 870.082 1424.98 919.268ZM1514.83 1154.91C1383.52 1154.91 1277.08 1049.41 1277.08 919.268C1277.08 789.131 1383.52 683.626 1514.83 683.626C1646.14 683.626 1752.58 789.131 1752.58 919.268C1752.58 1049.41 1646.14 1154.91 1514.83 1154.91Z" stroke="#6E74F8"/>
<path d="M-62.6771 1449.89L-62.6665 1449.89L-60.9602 1448.58C-52.1314 1441.82 -44.4151 1434.46 -37.8415 1426.79L-31.4405 1419.31L-24.5577 1412.28C-11.5732 1399.01 -1.53029 1387.81 12.0591 1372.58L12.4475 1372.15C37.7535 1343.8 68.7718 1309.04 120.857 1262.74C243.229 1153.97 382.771 1125.14 500.259 1128.11C599.212 1130.61 694.306 1156.59 750.693 1172C753.857 1172.87 756.899 1173.7 759.813 1174.49C790.394 1182.8 811.197 1188.38 829.764 1192.39L841.331 1194.88L841.37 1194.89L852.7 1198.3C893.762 1210.67 938.348 1217.58 985.507 1217.58C1232.44 1217.58 1386.69 1040.28 1386.69 875.761C1386.69 711.245 1232.44 533.941 985.507 533.941C797.927 533.941 656.474 641.406 606.221 764.509L598.414 783.634L588.028 801.491C557.335 854.264 516.192 914.697 468.063 969.788C424.921 1019.17 353.662 1090.7 258.391 1132.38C168.605 1171.66 90.3275 1195.21 16.356 1207C-55.4652 1218.44 -113.412 1216.9 -148.522 1215.96C-149.62 1215.93 -150.695 1215.9 -151.749 1215.87C-174.91 1215.26 -182.415 1215.26 -188.974 1215.7C-192.977 1215.98 -196.855 1216.46 -203.367 1218.28L-209.721 1220.06L-209.742 1220.06L-216.17 1221.55C-298.089 1240.57 -335.752 1302.24 -335.752 1350.64C-335.752 1406.36 -281.386 1484.7 -172.012 1484.7C-129.001 1484.7 -92.1079 1471.21 -64.4256 1451.16L-62.6771 1449.89ZM118.874 1683.44L118.859 1683.45L118.846 1683.46C117.75 1684.43 116.643 1685.41 115.526 1686.39C113.727 1687.98 111.901 1689.59 110.046 1691.21L109.801 1690.85L109.512 1690.42L109.093 1690.72L109.041 1690.76L108.99 1690.79L109.28 1691.2L108.99 1690.79C100.507 1696.94 91.788 1702.8 82.8481 1708.39C9.91644 1753.94 -77.7306 1780.5 -172.012 1780.5C-425.841 1780.5 -631.552 1588.01 -631.552 1350.64C-631.552 1149.07 -483.221 979.871 -283.044 933.412L-283.033 933.41L-283.023 933.407C-227.817 917.97 -186.973 919.044 -143.966 920.176L-143.956 920.176C-110.061 921.068 -74.8198 921.996 -30.1994 914.884C14.4254 907.772 68.4134 892.623 139.828 861.379C175.162 845.92 211.779 813.544 245.3 775.174C278.83 736.795 309.299 692.376 332.33 652.777L332.347 652.747L332.361 652.714C431.201 410.587 686.326 238.142 985.507 238.142C1370.48 238.142 1682.49 523.654 1682.49 875.761C1682.49 1227.87 1370.48 1513.38 985.507 1513.38C909.333 1513.38 836.014 1502.2 767.403 1481.54L767.384 1481.53L767.365 1481.53C739.788 1475.58 711.26 1467.82 682.232 1459.93L682.2 1459.93C621.077 1443.31 557.735 1426.1 496.572 1423.93C435.379 1421.76 376.331 1434.65 323.826 1478.28C321.665 1480.08 319.515 1481.93 317.377 1483.83C278.073 1518.76 256.092 1543.39 232.743 1569.55C219.14 1584.79 205.075 1600.55 186.844 1619.18L186.833 1619.19L186.822 1619.2C166.636 1642.77 143.851 1664.31 118.874 1683.44Z" stroke="#3A41E9"/>
<path d="M-126.587 416.857C-126.587 318.186 -206.576 238.196 -305.248 238.196C-403.919 238.196 -483.909 318.186 -483.909 416.857C-483.909 515.529 -403.919 595.518 -305.248 595.518C-206.576 595.518 -126.587 515.529 -126.587 416.857ZM-305.248 61.0355C-108.733 61.0355 50.5741 220.342 50.5741 416.857C50.5741 613.372 -108.733 772.679 -305.248 772.679C-501.763 772.679 -661.069 613.372 -661.069 416.857C-661.069 220.342 -501.763 61.0355 -305.248 61.0355Z" stroke="#3A41E9"/>
</svg>
