<svg width="1676" height="1771" viewBox="0 0 1676 1771" fill="none" xmlns="http://www.w3.org/2000/svg">
<path d="M1816.61 331.106L1816.6 331.114L1814.89 332.42C1806.07 339.181 1798.35 346.537 1791.78 354.213L1785.37 361.686L1778.49 368.719C1765.51 381.986 1755.46 393.19 1741.88 408.415L1741.49 408.851C1716.18 437.204 1685.16 471.957 1633.08 518.256C1510.71 627.032 1371.16 655.856 1253.67 652.89C1154.72 650.393 1059.63 624.407 1003.24 608.998C1000.08 608.133 997.035 607.302 994.121 606.51C963.54 598.198 942.737 592.621 924.171 588.614L912.603 586.12L912.565 586.11L901.234 582.696C860.172 570.33 815.586 563.419 768.427 563.419C521.494 563.419 367.248 740.723 367.248 905.239C367.248 1069.76 521.494 1247.06 768.427 1247.06C956.007 1247.06 1097.46 1139.59 1147.71 1016.49L1155.52 997.366L1165.91 979.509C1196.6 926.736 1237.74 866.303 1285.87 811.212C1329.01 761.83 1400.27 690.303 1495.54 648.622C1585.33 609.341 1663.61 585.792 1737.58 574.003C1809.4 562.556 1867.35 564.103 1902.46 565.041C1903.55 565.071 1904.63 565.099 1905.68 565.127C1928.84 565.737 1936.35 565.739 1942.91 565.295C1946.91 565.025 1950.79 564.541 1957.3 562.721L1963.65 560.943L1963.68 560.938L1970.1 559.447C2052.02 540.434 2089.69 478.758 2089.69 430.36C2089.69 374.642 2035.32 296.3 1925.95 296.3C1882.94 296.3 1846.04 309.789 1818.36 329.839L1816.61 331.106ZM1635.06 97.5647L1635.07 97.5538L1635.09 97.5419C1636.18 96.5702 1637.29 95.5916 1638.41 94.6059C1640.21 93.0192 1642.03 91.414 1643.89 89.79L1644.13 90.154L1644.42 90.5831L1644.84 90.2798L1644.89 90.2423L1644.94 90.2052L1644.65 89.8036L1644.94 90.2051C1653.43 84.0645 1662.15 78.1953 1671.09 72.6114C1744.02 27.0586 1831.66 0.500098 1925.95 0.500102C2179.78 0.500113 2385.49 192.986 2385.49 430.36C2385.49 631.931 2237.15 801.129 2036.98 847.588L2036.97 847.59L2036.96 847.593C1981.75 863.03 1940.91 861.956 1897.9 860.824L1897.89 860.824C1864 859.932 1828.75 859.004 1784.13 866.116C1739.51 873.228 1685.52 888.377 1614.11 919.621C1578.77 935.08 1542.15 967.456 1508.63 1005.83C1475.1 1044.2 1444.64 1088.62 1421.6 1128.22L1421.59 1128.25L1421.57 1128.29C1322.73 1370.41 1067.61 1542.86 768.427 1542.86C383.454 1542.86 71.4479 1257.35 71.448 905.239C71.448 553.133 383.454 267.62 768.427 267.62C844.601 267.62 917.92 278.799 986.531 299.461L986.55 299.467L986.569 299.471C1014.15 305.422 1042.67 313.176 1071.7 321.065L1071.73 321.074C1132.86 337.687 1196.2 354.902 1257.36 357.07C1318.56 359.239 1377.6 346.347 1430.11 302.718C1432.27 300.922 1434.42 299.074 1436.56 297.173C1475.86 262.236 1497.84 237.609 1521.19 211.448C1534.79 196.207 1548.86 180.448 1567.09 161.821L1567.1 161.809L1567.11 161.797C1587.3 138.228 1610.08 116.691 1635.06 97.5647Z" stroke="#6E74F8"/>
<path d="M958.178 1449.89L958.189 1449.89L959.895 1448.58C968.724 1441.82 976.44 1434.46 983.014 1426.79L989.415 1419.31L996.298 1412.28C1009.28 1399.01 1019.33 1387.81 1032.91 1372.58L1033.3 1372.15C1058.61 1343.8 1089.63 1309.04 1141.71 1262.74C1264.08 1153.97 1403.63 1125.14 1521.11 1128.11C1620.07 1130.61 1715.16 1156.59 1771.55 1172C1774.71 1172.87 1777.75 1173.7 1780.67 1174.49C1811.25 1182.8 1832.05 1188.38 1850.62 1192.39L1862.19 1194.88L1862.22 1194.89L1873.56 1198.3C1914.62 1210.67 1959.2 1217.58 2006.36 1217.58C2253.3 1217.58 2407.54 1040.28 2407.54 875.761C2407.54 711.245 2253.3 533.941 2006.36 533.941C1818.78 533.941 1677.33 641.406 1627.08 764.509L1619.27 783.634L1608.88 801.491C1578.19 854.264 1537.05 914.697 1488.92 969.788C1445.78 1019.17 1374.52 1090.7 1279.25 1132.38C1189.46 1171.66 1111.18 1195.21 1037.21 1207C965.39 1218.44 907.443 1216.9 872.334 1215.96C871.236 1215.93 870.16 1215.9 869.107 1215.87C845.946 1215.26 838.44 1215.26 831.881 1215.7C827.878 1215.98 824 1216.46 817.489 1218.28L811.135 1220.06L811.113 1220.06L804.686 1221.55C722.767 1240.57 685.103 1302.24 685.103 1350.64C685.103 1406.36 739.469 1484.7 848.843 1484.7C891.854 1484.7 928.747 1471.21 956.43 1451.16L958.178 1449.89ZM1139.73 1683.44L1139.71 1683.45L1139.7 1683.46C1138.61 1684.43 1137.5 1685.41 1136.38 1686.39C1134.58 1687.98 1132.76 1689.59 1130.9 1691.21L1130.66 1690.85L1130.37 1690.42L1129.95 1690.72L1129.9 1690.76L1129.85 1690.79L1130.14 1691.2L1129.84 1690.79C1121.36 1696.94 1112.64 1702.8 1103.7 1708.39C1030.77 1753.94 943.125 1780.5 848.843 1780.5C595.014 1780.5 389.303 1588.01 389.303 1350.64C389.303 1149.07 537.635 979.871 737.811 933.412L737.822 933.41L737.833 933.407C793.038 917.97 833.882 919.044 876.889 920.176L876.9 920.176C910.794 921.068 946.036 921.996 990.656 914.884C1035.28 907.772 1089.27 892.623 1160.68 861.379C1196.02 845.92 1232.63 813.544 1266.16 775.174C1299.68 736.795 1330.15 692.376 1353.19 652.777L1353.2 652.747L1353.22 652.714C1452.06 410.587 1707.18 238.142 2006.36 238.142C2391.34 238.142 2703.34 523.654 2703.34 875.761C2703.34 1227.87 2391.34 1513.38 2006.36 1513.38C1930.19 1513.38 1856.87 1502.2 1788.26 1481.54L1788.24 1481.53L1788.22 1481.53C1760.64 1475.58 1732.12 1467.82 1703.09 1459.93L1703.06 1459.93C1641.93 1443.31 1578.59 1426.1 1517.43 1423.93C1456.23 1421.76 1397.19 1434.65 1344.68 1478.28C1342.52 1480.08 1340.37 1481.93 1338.23 1483.83C1298.93 1518.76 1276.95 1543.39 1253.6 1569.55C1240 1584.79 1225.93 1600.55 1207.7 1619.18L1207.69 1619.19L1207.68 1619.2C1187.49 1642.77 1164.71 1664.31 1139.73 1683.44Z" stroke="#3A41E9"/>
<path d="M894.269 416.857C894.269 318.186 814.279 238.196 715.608 238.196C616.936 238.196 536.947 318.186 536.947 416.857C536.947 515.529 616.936 595.518 715.608 595.518C814.279 595.518 894.269 515.529 894.269 416.857ZM715.608 61.0355C912.123 61.0355 1071.43 220.342 1071.43 416.857C1071.43 613.372 912.123 772.679 715.608 772.679C519.093 772.679 359.786 613.372 359.786 416.857C359.786 220.342 519.093 61.0355 715.608 61.0355Z" stroke="#3A41E9"/>
<path d="M328.95 861.731C328.95 812.544 288.721 772.678 239.106 772.678C189.491 772.678 149.262 812.544 149.262 861.731C149.262 910.918 189.491 950.785 239.106 950.785C288.721 950.785 328.95 910.918 328.95 861.731ZM239.106 626.089C370.416 626.089 476.857 731.594 476.857 861.731C476.857 991.869 370.416 1097.37 239.106 1097.37C107.796 1097.37 1.35546 991.869 1.35546 861.731C1.35545 731.594 107.796 626.089 239.106 626.089Z" stroke="#3A41E9"/>
</svg>
